<svg width="1140" height="342" xmlns="http://www.w3.org/2000/svg" fill="none">
 <defs>
  <clipPath id="clip0">
   <rect width="1140" height="342" fill="white" id="svg_1"/>
  </clipPath>
  <linearGradient id="paint0_linear" x1="1.02709" y1="0.2158" x2="0.01213" y2="1.02505">
   <stop stop-color="#6A4C91"/>
   <stop offset="1" stop-color="#6DA2BF"/>
  </linearGradient>
 </defs>
 <g>
  <title>Layer 1</title>
  <g clip-path="url(#clip0)" id="svg_2">
   <path d="m345,249c-147.2,-50 -295.5,25 -341.5,87.5l-58.5,72.5l0,-519l1219.5,0l17,394.5c-51.6,-70.8 -251,-77.293 -359.5,-35.5c-108.5,41.793 -329.8,50 -477,0z" fill="url(#paint0_linear)" id="svg_3"/>
   <path d="m262.054,77l0,72l22.176,0l0,-24.288c0,-4.896 2.4,-7.584 4.704,-7.584c2.304,0 4.512,2.496 4.512,7.488l0,24.384l22.176,0l0,-22.272c0,-13.44 -3.072,-26.688 -19.776,-26.688c-4.416,0 -8.448,1.824 -11.616,4.704l0,-27.744l-22.176,0zm60.248,48.192c0,13.152 8.16,25.632 27.072,25.632c14.496,0 21.504,-9.024 21.6,-9.024l-9.12,-11.904c-2.304,3.264 -5.952,4.992 -9.504,4.992c-3.36,0 -6.432,-1.536 -7.968,-5.088l27.168,-3.072c-0.096,-8.928 -3.552,-27.168 -21.984,-27.168c-18.912,0 -27.264,12.384 -27.264,25.632zm21.6,-5.664c0.96,-4.128 3.456,-6.144 5.856,-6.144c2.304,0 4.608,1.92 5.088,5.376l-10.944,0.768zm33.829,-18.528l0,22.272c0,13.44 3.072,26.688 19.776,26.688c4.992,0 8.736,-2.304 11.616,-5.568l0,2.784c0,3.552 -1.152,9.408 -9.024,9.408c-8.832,0 -16.8,-6.72 -16.8,-6.72l-4.704,16.416c0.096,-0.096 5.088,6.72 21.696,6.72c16.8,0 31.008,-4.128 31.008,-25.248l0,-46.752l-22.176,0l0,24.288c0,4.896 -2.4,7.584 -4.704,7.584c-2.304,0 -4.512,-2.496 -4.512,-7.488l0,-24.384l-22.176,0zm56.695,57.024l11.712,0l10.464,-21.6l-16.32,0l-5.856,21.6zm46.727,-57.024l0,48l22.176,0l0,-48l-22.176,0zm12,-4.992c15.552,0 14.976,-21.696 0,-21.696c-15.936,0 -16.608,21.696 0,21.696zm16.794,7.392l11.712,0l10.464,-21.6l-16.32,0l-5.856,21.6zm27.065,20.544l0,25.056l22.176,0l0,-24.96c0,-4.704 1.824,-7.008 3.648,-7.008c1.824,0 3.648,2.304 3.648,7.008l0,24.96l22.176,0l0,-24.96c0,-4.704 1.824,-7.008 3.648,-7.008c1.824,0 3.648,2.304 3.648,7.008l0,24.96l22.176,0l0,-25.056c0,-16.992 -12.864,-25.44 -25.728,-25.44c-5.28,0 -10.464,1.44 -14.784,4.128c-4.416,-2.688 -9.6,-4.128 -14.784,-4.128c-12.96,0 -25.824,8.448 -25.824,25.44zm106.995,16.8c6.816,7.104 15.936,10.656 24.576,10.656c13.92,0 26.592,-9.12 26.592,-26.88l0,-42.72l-22.176,0l0,39.36c0,6.432 -1.632,10.464 -6.816,10.464c-6.912,0 -10.944,-6.72 -10.944,-6.72l-11.232,15.84zm57.889,-15.552c0,12.672 7.104,25.248 21.312,25.248c4.896,0 8.928,-1.92 12.192,-4.8l0,3.36l22.176,0l0,-48l-22.176,0l0,3.456c-3.264,-2.784 -7.296,-4.512 -12.192,-4.512c-14.304,0 -21.312,12.672 -21.312,25.248zm33.504,0c0,5.664 -2.976,8.448 -5.952,8.448c-3.072,0 -6.24,-2.88 -6.24,-8.448c0,-5.376 3.168,-8.352 6.336,-8.352c2.976,0 5.856,2.688 5.856,8.352zm-47.003,38.304c6.72,20.064 29.184,32.16 50.88,32.16c42.432,0 61.92,-44.16 78.72,-94.656l-22.272,0c-1.344,7.296 -2.976,14.592 -5.088,21.696l-5.952,-21.696l-22.272,0l17.952,46.752c-8.832,15.84 -21.504,28.032 -39.648,28.032c-13.632,0 -28.512,-6.624 -33.024,-20.928l-19.296,8.64zm133.405,-38.304c0,13.152 8.16,25.632 27.072,25.632c14.496,0 21.504,-9.024 21.6,-9.024l-9.12,-11.904c-2.304,3.264 -5.952,4.992 -9.504,4.992c-3.36,0 -6.432,-1.536 -7.968,-5.088l27.168,-3.072c-0.096,-8.928 -3.552,-27.168 -21.984,-27.168c-18.912,0 -27.264,12.384 -27.264,25.632zm21.6,-5.664c0.96,-4.128 3.456,-6.144 5.856,-6.144c2.304,0 4.608,1.92 5.088,5.376l-10.944,0.768zm36.805,8.352l15.264,0l3.456,-46.08l-22.176,0l3.456,46.08zm-1.152,13.44c0,4.704 3.744,8.448 8.544,8.448c4.704,0 8.448,-3.744 8.448,-8.448c0,-4.8 -3.744,-8.544 -8.448,-8.544c-4.8,0 -8.544,3.744 -8.544,8.544z" fill="white" id="svg_4"/>
  </g>
  <path id="svg_5" d="m238.03333,94c0,-16.30137 13.69863,-30 30,-30l660,0c16.30137,0 30,13.69863 30,30l0,77c0,16.30137 -13.69863,30 -30,30l-660,0c-16.30137,0 -30,-13.69863 -30,-30l0,-77z" opacity="undefined" stroke="#000" fill="#fff"/>
  <text transform="matrix(1.03002, 0, 0, 1.10413, -13.9331, -17.2837)" font-style="normal" font-weight="bold" xml:space="preserve" text-anchor="start" font-family="'Grandstander'" font-size="60" stroke-width="0" id="svg_6" y="151.92005" x="361.83729" stroke="#000" fill="#000000">Dima Simonyan</text>
 </g>
</svg>